<?xml version="1.0" encoding="UTF-8" standalone="no" ?>
<!DOCTYPE svg PUBLIC "-//W3C//DTD SVG 1.1//EN" "http://www.w3.org/Graphics/SVG/1.1/DTD/svg11.dtd">
<svg xmlns="http://www.w3.org/2000/svg" xmlns:xlink="http://www.w3.org/1999/xlink" version="1.1" width="640" height="480" viewBox="0 0 640 480" xml:space="preserve">
<desc>Created with Fabric.js 3.6.6</desc>
<defs>
</defs>
<g transform="matrix(0.57 0 0 0.57 267 243)"  >
<g style=""   >
		<g transform="matrix(22.22 0 0 22.22 -0.04 -0.04)"  >
<path style="stroke: none; stroke-width: 1; stroke-dasharray: none; stroke-linecap: butt; stroke-dashoffset: 0; stroke-linejoin: miter; stroke-miterlimit: 4; fill: rgb(59,136,195); fill-rule: nonzero; opacity: 1;"  transform=" translate(-18, -18)" d="M 36 32 a 4 4 0 0 1 -4 4 H 4 a 4 4 0 0 1 -4 -4 V 4 a 4 4 0 0 1 4 -4 h 28 a 4 4 0 0 1 4 4 v 28 z" stroke-linecap="round" />
</g>
		<g transform="matrix(22.22 0 0 22.22 55.52 -144.46)"  >
<path style="stroke: none; stroke-width: 1; stroke-dasharray: none; stroke-linecap: butt; stroke-dashoffset: 0; stroke-linejoin: miter; stroke-miterlimit: 4; fill: rgb(255,255,255); fill-rule: nonzero; opacity: 1;"  transform=" translate(-20.5, -11.5)" d="M 21 11 a 6 6 0 1 1 -12 0 a 6 6 0 0 1 12 0 z m 10.999 2 a 5 5 0 1 1 -10.001 -0.001 A 5 5 0 0 1 31.999 13 z" stroke-linecap="round" />
</g>
		<g transform="matrix(22.22 0 0 22.22 -22.25 122.2)"  >
<path style="stroke: none; stroke-width: 1; stroke-dasharray: none; stroke-linecap: butt; stroke-dashoffset: 0; stroke-linejoin: miter; stroke-miterlimit: 4; fill: rgb(255,255,255); fill-rule: nonzero; opacity: 1;"  transform=" translate(-17, -23.5)" d="M 30 20 a 4 4 0 0 0 -4 -4 H 15 a 4 4 0 0 0 -4 4 l -6 -4 H 4 v 13 h 1 l 6 -4 v 2 a 4 4 0 0 0 4 4 h 11 a 4 4 0 0 0 4 -4 v -7 z" stroke-linecap="round" />
</g>
</g>
</g>
<g transform="matrix(2.31 0 0 2.31 266.06 298.87)" style=""  >
		<text xml:space="preserve" font-family="'Open Sans', sans-serif" font-size="18" font-style="normal" font-weight="bold" style="stroke: none; stroke-width: 1; stroke-dasharray: none; stroke-linecap: butt; stroke-dashoffset: 0; stroke-linejoin: miter; stroke-miterlimit: 4; fill: rgb(0,0,0); fill-rule: nonzero; opacity: 1; white-space: pre;" ><tspan x="-69" y="5.65" style="stroke-width: 1; font-family: 'Open Sans', sans-serif; font-size: 18px; font-style: normal; fill: rgb(0,0,0); ">Mattec Movies</tspan></text>
</g>
</svg>